<?xml version="1.0" encoding="utf-8"?>
<!-- Generator: Adobe Illustrator 17.0.0, SVG Export Plug-In . SVG Version: 6.00 Build 0)  -->
<!DOCTYPE svg PUBLIC "-//W3C//DTD SVG 1.1//EN" "http://www.w3.org/Graphics/SVG/1.1/DTD/svg11.dtd">
<svg version="1.1" id="Layer_1" xmlns="http://www.w3.org/2000/svg" xmlns:xlink="http://www.w3.org/1999/xlink" x="0px" y="0px"
	 width="32px" height="32px" viewBox="0 0 32 32" enable-background="new 0 0 32 32" xml:space="preserve">
<path fill-rule="evenodd" clip-rule="evenodd" fill="#DDDCDC" d="M16,0C7.163,0,0,7.164,0,16c0,8.836,7.163,16,16,16
	c8.836,0,16-7.164,16-16C32,7.164,24.836,0,16,0z M26,9.895c-0.725,0.32-1.502,0.537-2.318,0.636c0.832-0.5,1.473-1.291,1.775-2.235
	c-0.781,0.463-1.646,0.799-2.564,0.981C22.154,8.49,21.105,8,19.943,8c-2.231,0-4.038,1.809-4.038,4.039
	c0,0.316,0.035,0.625,0.105,0.922c-3.356-0.168-6.333-1.777-8.325-4.221c-0.348,0.596-0.547,1.291-0.547,2.03
	c0,1.402,1.16,2.637,2.244,3.363C8.72,14.111,8,13.929,8,13.625c0,0.019,0,0.037,0,0.054c0,1.955,0.945,3.586,2.793,3.959
	c-0.34,0.092-0.92,0.143-1.288,0.143c-0.261,0-0.625-0.027-0.872-0.074c0.514,1.606,1.949,2.774,3.717,2.805
	c-1.383,1.082-3.151,1.73-5.044,1.73c-0.326,0-0.662-0.019-0.977-0.057C8.115,23.329,10.231,24,12.512,24
	c7.431,0,11.49-6.154,11.49-11.492c0-0.176-0.008-0.351-0.016-0.523C24.777,11.414,25.459,10.703,26,9.895z"/>
</svg>
